PathFileType	3	(X/Y/Z)	C:\Users\koon_\Desktop\
DataRate	CameraRate	NumFrames	NumMarkers	Units	OrigDataRate	OrigDataStartFrame	OrigNumFrames
100.0	100.0	14	27	mm	100.0	2252	3002	
Frame#	Time	GM:LFHD			GM:RFHD			GM:LBHD			GM:RBHD			GM:C7			GM:T10			GM:CLAV			GM:STRN			GM:RBAK			GM:LSHO			GM:LUPA			GM:LELB			GM:LFRA			GM:LWRA			GM:LWRB			GM:LFIN			GM:RSHO			GM:RUPA			GM:RELB			GM:RFRA			GM:RWRA			GM:RWRB			GM:RFIN			GM:LASI			GM:RASI			GM:LPSI			GM:RPSI			
		X1	Y1	Z1	X2	Y2	Z2	X3	Y3	Z3	X4	Y4	Z4	X5	Y5	Z5	X6	Y6	Z6	X7	Y7	Z7	X8	Y8	Z8	X9	Y9	Z9	X10	Y10	Z10	X11	Y11	Z11	X12	Y12	Z12	X13	Y13	Z13	X14	Y14	Z14	X15	Y15	Z15	X16	Y16	Z16	X17	Y17	Z17	X18	Y18	Z18	X19	Y19	Z19	X20	Y20	Z20	X21	Y21	Z21	X22	Y22	Z22	X23	Y23	Z23	X24	Y24	Z24	X25	Y25	Z25	X26	Y26	Z26	X27	Y27	Z27	
2252	22.51	113.03696	1561.6082	-226.82361	-40.577541	1565.1842	-218.29399	105.41867	1521.1545	-353.50308	-56.199661	1530.9701	-328.11899	13.441249	1347.6398	-361.46582	7.964108	1143.6436	-345.87692	28.179081	1335.1282	-192.83293	25.967125	1212.8271	-103.21575	-78.850533	1229.071	-375.8244	187.96338	1332.2045	-304.47357	259.50543	1232.9656	-288.6026	300.34631	1024.6877	-296.22787	319.27408	941.21161	-173.78362	335.85318	882.13947	-133.65092	358.70752	846.38159	-186.04108	363.64264	802.76233	-95.993324	-162.65602	1352.5774	-268.3158	-258.47531	1140.9739	-247.94418	-298.51254	1059.1438	-292.12634	-298.52762	1012.509	-207.83015	-322.40988	891.14355	-158.20419	-344.76767	866.14368	-211.44119	-352.34119	808.56171	-133.41801	162.79773	908.49164	-36.87537	-131.4476	904.39276	-22.623903	77.231224	911.76593	-251.19641	-62.917545	901.37878	-245.4549
2253	22.52	113.64059	1559.7112	-230.72453	-40.04425	1563.5032	-221.98311	105.76041	1518.6012	-357.16586	-55.808273	1528.631	-331.56677	13.431671	1345.0168	-363.98557	7.5381126	1141.1503	-346.6998	28.528015	1333.609	-195.12981	26.058783	1211.8951	-104.7461	-78.949074	1226.502	-377.44641	187.92886	1329.493	-307.30597	259.41248	1230.3246	-291.09549	300.09958	1022.0032	-297.388	319.64526	939.55548	-174.54623	336.74756	880.71613	-134.01349	359.20065	844.50714	-186.33521	364.72534	801.58087	-95.878799	-162.46123	1351.0089	-270.6651	-258.66541	1139.6968	-249.47285	-298.60852	1057.6534	-293.53101	-299.04855	1011.3726	-209.23392	-323.31229	890.16779	-159.27332	-345.82422	865.13422	-212.56775	-353.52991	807.63202	-134.49103	162.8027	908.30255	-36.189095	-131.48032	904.11255	-21.443308	76.921593	910.37616	-250.55363	-63.137611	899.797	-244.25259
2254	22.53	114.16361	1557.9387	-234.6172	-39.484287	1561.9478	-225.52637	106.05421	1516.0214	-360.71188	-55.273029	1526.4181	-334.94193	13.420943	1342.437	-366.35342	7.0502772	1138.7202	-347.48688	28.672903	1332.0984	-197.38249	26.14275	1210.9095	-106.14927	-79.081215	1224.0541	-378.9559	187.89027	1326.7537	-309.94977	259.32126	1227.6768	-293.48767	299.89413	1019.3441	-298.50928	320.85971	937.79315	-175.07202	337.65201	879.27643	-134.27614	359.69351	842.69452	-186.47751	365.74438	800.33777	-95.737915	-162.27943	1349.4535	-272.83578	-258.82199	1138.2959	-251.18184	-298.79959	1056.2684	-294.98587	-299.5314	1010.166	-210.51344	-324.19568	889.13824	-160.31862	-346.52344	864.02332	-213.62984	-354.5386	806.67542	-135.39709	162.84444	908.1463	-35.52877	-131.46725	903.77258	-20.439613	76.567673	908.99829	-249.86708	-63.319565	898.2204	-242.6291
2255	22.54	114.62959	1556.1786	-238.26816	-38.986736	1560.3121	-229.14726	106.37009	1513.4808	-364.12189	-55.016163	1524.1368	-338.26175	13.343971	1339.9531	-368.65421	6.5500283	1136.2762	-348.32086	28.870012	1330.5723	-199.55692	26.233156	1209.8992	-107.53523	-79.290504	1221.6881	-380.55743	187.8857	1324.0477	-312.40771	259.24197	1224.9617	-295.64932	299.74002	1016.6346	-299.57816	320.91083	935.88214	-175.67307	338.39151	877.76196	-134.59752	360.15256	840.76544	-186.6319	366.69321	799.07721	-95.595016	-162.19781	1347.9204	-274.85828	-258.9183	1136.9778	-252.58424	-298.95688	1054.8219	-296.2937	-300.17151	1008.8461	-211.75412	-325.10269	888.09308	-161.36618	-347.14456	862.83679	-214.64523	-355.61655	805.758	-136.27617	162.81772	908.01721	-35.144035	-131.47292	903.47986	-19.483818	76.197639	907.56635	-249.1662	-63.668064	896.73004	-241.63692
2256	22.55	115.1301	1554.3995	-241.85936	-38.460873	1558.7689	-232.6425	106.70684	1510.9958	-367.47409	-54.626518	1521.9563	-341.60025	13.365078	1337.5358	-370.99088	6.0546432	1133.8953	-348.99112	29.115717	1329.1783	-201.75943	26.315859	1209.0278	-108.77935	-79.486938	1219.4177	-381.88916	187.95299	1321.3191	-314.78445	259.11359	1222.2494	-297.63733	299.51779	1013.9121	-300.40869	321.49884	934.05292	-176.24356	339.35095	876.32513	-134.77364	360.57599	838.85229	-186.7197	367.73032	797.71143	-95.531288	-162.06616	1346.4254	-276.91309	-258.95883	1135.6644	-253.93224	-299.05817	1053.394	-297.41312	-300.47296	1007.8411	-212.83983	-325.84436	887.09326	-162.28781	-347.82086	861.68506	-215.61015	-356.63574	804.77625	-137.11992	162.78906	907.97607	-34.758453	-131.43623	903.10858	-18.456812	75.790993	906.23578	-248.4753	-63.94434	895.36176	-240.97269
2257	22.56	115.59718	1552.6783	-245.37302	-38.057983	1557.2028	-236.03445	107.04466	1508.5679	-370.69125	-54.260735	1519.8315	-344.7384	13.384114	1335.127	-373.27383	5.5569296	1131.5004	-349.71054	29.30805	1327.7415	-204.02271	26.450954	1208.3385	-109.97443	-79.84169	1217.1475	-383.37527	188.03998	1318.585	-317.08438	258.96844	1219.5155	-299.53421	299.38116	1011.2741	-301.34531	321.98392	932.17816	-176.77983	339.9975	874.64984	-135.04271	360.99448	836.98212	-186.80536	368.4996	796.39026	-95.374855	-162.01982	1344.964	-278.96109	-259.11743	1134.3727	-255.31113	-299.12592	1051.9749	-298.48343	-300.84235	1006.6668	-213.84207	-326.51907	886.06421	-163.04836	-348.19507	860.64917	-216.31068	-357.49341	803.82776	-137.82735	162.90112	907.92151	-34.361809	-131.57426	902.7467	-17.606833	75.36097	904.93945	-247.82837	-64.22197	894.11981	-240.33687
2258	22.57	116.06996	1550.887	-248.74316	-37.581112	1555.6135	-239.3512	107.41711	1506.1917	-373.92642	-53.829628	1517.8629	-347.96188	13.417713	1332.7578	-375.55087	5.0556965	1129.1814	-350.33096	29.496605	1326.3695	-206.16768	26.376303	1207.7395	-111.30507	-80.16436	1214.8613	-384.78314	188.056	1315.8982	-319.43643	258.77643	1216.7908	-301.31598	299.086	1008.6026	-302.15454	322.42023	930.35156	-177.1488	340.6752	873.09064	-135.1998	361.39243	834.99127	-186.87726	369.42148	794.97101	-95.210716	-161.95789	1343.4709	-281.04486	-259.16412	1133.1079	-256.32327	-298.83304	1050.6357	-299.54895	-301.21838	1005.5114	-214.78447	-327.15402	885.0896	-163.72119	-348.74591	859.60266	-217.04097	-358.30087	802.8324	-138.46269	163.0127	907.70447	-33.938808	-131.63507	902.34955	-16.755873	74.947952	903.77191	-247.21609	-64.484116	892.98615	-239.66626
2259	22.58	116.5857	1549.0317	-252.1497	-37.093319	1553.9135	-242.7693	107.80653	1503.9365	-377.15854	-53.456089	1515.7412	-351.16623	13.376132	1330.2676	-377.73093	4.504828	1126.8644	-350.83459	29.623396	1325.0466	-208.38326	26.375614	1207.2184	-112.53839	-80.493126	1212.5477	-385.98141	188.04514	1313.2217	-321.74454	258.55273	1214.1241	-303.05759	298.81403	1006.009	-302.89505	323.24283	928.63678	-177.58209	341.27975	871.47198	-135.29198	361.76529	833.05615	-186.92215	370.19037	793.61731	-95.066864	-161.8568	1342.0651	-283.2952	-259.19763	1131.869	-257.5639	-299.353	1049.2693	-300.31271	-301.56766	1004.4052	-215.57907	-327.68921	884.11127	-164.25204	-349.29858	858.49921	-217.56635	-358.99799	801.85254	-138.96942	163.12677	907.3999	-33.536461	-131.63148	901.94867	-15.593367	74.45726	902.56586	-246.51164	-64.890366	891.8952	-238.8698
2260	22.59	117.04639	1547.1294	-255.42763	-36.60339	1552.3594	-245.98703	108.18202	1501.6207	-380.25198	-53.05954	1513.8997	-354.18649	13.373292	1327.783	-379.91959	4.0629373	1124.6533	-351.40921	29.718906	1323.6831	-210.66119	26.290695	1206.7408	-113.70499	-80.773903	1210.1093	-387.29688	187.93956	1310.6042	-324.01749	258.27054	1211.5294	-304.86389	298.55737	1003.5074	-303.55246	323.14606	926.73102	-177.92099	341.82022	869.93579	-135.47044	362.12814	831.31281	-186.90128	371.01544	792.23273	-94.975159	-161.8145	1340.6038	-285.40622	-259.17783	1130.6404	-258.69348	-299.1077	1047.84	-301.21686	-301.78259	1003.2934	-216.28822	-328.19586	883.11334	-164.79892	-349.76587	857.42419	-217.976	-359.59167	800.86926	-139.30165	163.42909	907.00299	-33.073929	-131.65633	901.55664	-14.653799	74.014595	901.53766	-245.84285	-65.325264	890.95056	-238.0894
2261	22.6	117.56435	1545.2083	-258.59769	-36.041798	1550.8077	-249.2373	108.59479	1499.2958	-383.19397	-52.641853	1511.8706	-357.24908	13.329124	1325.2477	-382.02463	3.5680728	1122.4919	-351.86313	29.790173	1322.4203	-212.60243	26.151299	1206.1331	-115.09117	-80.979683	1207.694	-388.5762	187.80914	1308.0208	-326.29663	257.98132	1208.9878	-306.54346	298.20847	1000.9987	-304.13977	323.43057	924.97089	-178.27318	342.38989	868.48547	-135.56035	362.40652	829.55188	-186.9041	371.68924	790.92072	-94.84816	-161.7124	1339.1711	-287.56476	-259.25488	1129.3789	-259.70438	-299.54105	1046.585	-301.99759	-301.97733	1002.2455	-216.91409	-328.65424	882.19629	-165.08446	-350.18469	856.46008	-218.1722	-360.06747	800.02655	-139.47485	163.59637	906.64691	-32.720154	-131.62108	901.11267	-13.751971	73.62442	900.47772	-245.38631	-65.741302	890.00098	-237.43318
2262	22.61	118.04979	1543.396	-261.69531	-35.558491	1549.2637	-252.42271	108.96523	1496.9021	-386.11966	-52.188667	1509.9366	-360.22452	13.247466	1322.8302	-383.90128	3.1270385	1120.4252	-352.3345	29.818815	1321.1335	-214.59473	26.064936	1205.5426	-116.16201	-81.118744	1205.3295	-389.61542	187.5815	1305.5183	-328.43997	257.67542	1206.573	-308.34393	297.80917	998.55969	-304.78592	323.66998	923.32739	-178.59013	342.83423	867.05652	-135.64569	362.71579	827.95569	-186.91367	372.42108	789.63068	-94.678932	-161.6087	1337.7759	-289.67014	-259.2995	1128.1559	-260.79907	-299.26706	1045.1875	-302.8685	-302.16946	1001.1686	-217.53117	-328.96387	881.34735	-165.36153	-350.60229	855.46399	-218.35995	-360.48962	799.12885	-139.50331	163.75281	906.27515	-32.312469	-131.50432	900.77081	-12.729149	73.237305	899.57458	-244.8616	-66.292732	889.03723	-236.60849
2263	22.62	118.51659	1541.6239	-264.75339	-35.014332	1547.8928	-255.4547	109.31473	1494.5271	-389.01059	-51.767471	1508.0397	-363.08136	13.154138	1320.5391	-385.85022	2.6947	1118.3905	-352.85321	29.843407	1319.8713	-216.45212	25.884485	1204.8925	-117.28932	-81.194061	1203.0587	-390.76331	187.381	1303.0514	-330.48489	257.42334	1204.2266	-309.98215	297.40228	996.1701	-305.45813	323.93677	921.71368	-178.9707	343.31787	865.66827	-135.82083	363.0018	826.32727	-186.86909	373.00394	788.35114	-94.633057	-161.5807	1336.432	-291.52173	-259.38913	1126.9386	-261.91644	-299.43826	1043.8154	-303.51593	-302.32886	1000.1621	-218.12686	-329.25519	880.53802	-165.5121	-350.40045	854.3125	-218.40245	-360.82761	798.33423	-139.34329	163.77995	906.07007	-31.911097	-131.47475	900.45496	-11.765268	72.831917	898.66791	-244.32179	-66.697372	888.20514	-235.8974
2264	22.63	118.95309	1539.9518	-267.72913	-34.563988	1546.4796	-258.4382	109.68874	1492.2455	-391.75833	-51.43021	1506.0632	-365.87439	13.015749	1318.3717	-387.52924	2.2470489	1116.4032	-353.22186	29.761196	1318.6481	-218.15735	25.660381	1204.2935	-118.30111	-81.308907	1200.9652	-391.8905	187.18076	1300.6707	-332.32678	257.11697	1201.931	-311.60712	296.96445	993.91528	-306.04648	324.46988	920.16711	-179.33272	343.77066	864.2868	-135.99565	363.18723	824.72827	-186.92276	373.71225	787.17261	-94.46183	-161.56329	1335.0823	-293.22354	-259.54749	1125.8623	-262.92599	-299.80847	1042.4805	-304.15054	-302.535	999.19623	-218.65002	-329.56735	879.6922	-165.69725	-350.57367	853.3811	-218.40442	-361.14761	797.61359	-139.21439	163.6801	905.95276	-31.527468	-131.45279	900.13116	-11.007411	72.488632	897.7063	-243.7457	-67.068939	887.29254	-235.2093
2265	22.64	119.39265	1538.2889	-270.66568	-34.060455	1545.212	-261.35712	110.00794	1490.0011	-394.38678	-51.044384	1504.3052	-368.50452	12.874418	1316.3478	-389.23294	1.7691308	1114.5181	-353.53287	29.810196	1317.5248	-219.83624	25.478745	1203.7767	-119.1579	-81.452507	1199.0432	-392.84921	186.99191	1298.3865	-334.03351	256.7655	1199.6586	-312.97964	296.47595	991.61237	-306.57492	324.34531	918.56573	-179.69968	344.2507	862.97394	-136.09784	363.36035	823.14557	-186.97766	374.20639	786.0083	-94.468765	-161.65927	1333.8492	-294.77219	-259.71365	1124.7585	-263.7879	-299.66083	1041.1185	-304.75922	-302.73514	998.15472	-219.14432	-329.77432	878.90637	-165.6833	-351.27451	852.46405	-218.41518	-361.41364	796.89166	-138.97687	163.59834	905.98523	-31.158995	-131.42589	899.83948	-10.371412	72.256172	896.81494	-243.28619	-67.409714	886.41986	-234.45149
